<?xml version="1.0" encoding="utf-8"?>
<!-- Generator: Adobe Illustrator 22.0.0, SVG Export Plug-In . SVG Version: 6.00 Build 0)  -->
<svg version="1.1"
	 id="Layer_1" xmlns:cc="http://creativecommons.org/ns#" xmlns:dc="http://purl.org/dc/elements/1.1/" xmlns:inkscape="http://www.inkscape.org/namespaces/inkscape" xmlns:rdf="http://www.w3.org/1999/02/22-rdf-syntax-ns#" xmlns:sodipodi="http://sodipodi.sourceforge.net/DTD/sodipodi-0.dtd" xmlns:svg="http://www.w3.org/2000/svg"
	 xmlns="http://www.w3.org/2000/svg" xmlns:xlink="http://www.w3.org/1999/xlink" x="0px" y="0px" viewBox="0 0 100 100"
	 style="enable-background:new 0 0 100 100;" xml:space="preserve">
<g transform="translate(0,-952.36216)">
	<path d="M5.3,957.5v47.4c0.7-1.1,1.6-2.2,2.6-3.1v-41.7h84.4v64.2H69.5c-0.8,0.9-1.6,1.7-2.4,2.6H95v-69.4
		C95,957.5,5.3,957.5,5.3,957.5z M55,968.9v28.4h28.4v-2.2H57.2v-26.3C57.2,968.9,55,968.9,55,968.9z M81.7,971.7l-4.6,3.4l1.7,0.8
		l-2.1,4.7l-4.7-2.2l-3.2,7.1l-4.8-2.7l-3.7,8.7l2,0.9l2.7-6.5l4.7,2.7l3.3-7.3l4.7,2.2l3-6.8l1.5,0.7L81.7,971.7L81.7,971.7z
		 M33,972.8c-6.4,0-11.7,5.2-11.7,11.7c0,6.5,5.2,11.7,11.7,11.7c6.5,0,11.7-5.2,11.7-11.7C44.7,978,39.5,972.8,33,972.8z
		 M18.3,999.6L18.3,999.6c-7.4,0.2-13.3,6.3-13.3,13.9v14.4c0,0,0,2.6,0.9,3.8c0.9,1.2,2.6,1.9,2.6,1.9l16.3,6.5
		c5.9,2.4,9-5.5,3.1-7.8l-14.4-5.7v-12.1h3.7v11.5c2.6,1,6.6,2.4,9.2,3.5c2.8,0.8,5.7,2.4,6.6,5.4c1.4,4-2.6,8.3-6.6,7.8
		c-2.6-0.8-6.6-2.4-9.1-3.4v8.1h31.8l0-32.8h3.6v14.1c0,4.9,4.8,6,7.1,3.6l17-18.7c4.3-4.7-2-10.4-6.2-5.7l-9.5,10.4v-4.5
		c0-7.1-5.5-14-13.8-14h-6.1l-15.9,0h-6.3L18.3,999.6L18.3,999.6L18.3,999.6z"/>
</g>
</svg>
