<?xml version="1.0" encoding="utf-8"?>
<!-- Generator: Adobe Illustrator 22.0.0, SVG Export Plug-In . SVG Version: 6.00 Build 0)  -->
<svg version="1.1"
	 id="Layer_1" xmlns:cc="http://creativecommons.org/ns#" xmlns:dc="http://purl.org/dc/elements/1.1/" xmlns:inkscape="http://www.inkscape.org/namespaces/inkscape" xmlns:rdf="http://www.w3.org/1999/02/22-rdf-syntax-ns#" xmlns:sodipodi="http://sodipodi.sourceforge.net/DTD/sodipodi-0.dtd" xmlns:svg="http://www.w3.org/2000/svg"
	 xmlns="http://www.w3.org/2000/svg" xmlns:xlink="http://www.w3.org/1999/xlink" x="0px" y="0px" viewBox="0 0 100 110"
	 style="enable-background:new 0 0 100 110;" xml:space="preserve">
<g transform="translate(0,-952.36216)">
	<path d="M54.8,980.9c0,2.9,2.4,5.3,5.3,5.3c2.9,0,5.3-2.4,5.3-5.3c0-2.9-2.4-5.3-5.3-5.3C57.1,975.6,54.8,978,54.8,980.9z
		 M43.3,985.2c-1.1,0.5-1.5,1.7-1.1,2.8l1.2,2.8c0.3,0.8,1.1,1.3,1.9,1.3h12.4l-11.5,2.7c-0.8,0.2-1.4,0.8-1.6,1.7l-0.5,3
		c0,0,0,0.1,0,0.1c-0.2,1.1,0.6,2.2,1.7,2.4c1.1,0.2,2.2-0.6,2.4-1.7l0.3-1.6l12.5-2.9c1.5,2.7,2.5,5.1,3.6,8.7
		c-2.2,0.7-4.2,1.7-5.8,3.4c-4,3.9-5,10.4-2.6,19.4c0,0,0,0.1,0,0.1c0.5,1.6,2.1,2.5,3.7,2c1.6-0.5,2.5-2.1,2-3.7
		c-2.2-8-1-11.6,1-13.6c1.7-1.6,4.9-2.5,8.9-2.8c1.2,3.8,3.6,7,6.5,9.7c3.5,3.3,7.8,6.2,12,9c0,0,0,0,0.1,0c1.4,0.9,3.2,0.5,4.1-0.8
		c0.9-1.4,0.5-3.2-0.8-4.1c-4.2-2.9-8.3-5.6-11.3-8.4c-2.9-2.7-4.7-5.4-5.2-8.5c0-0.3-0.1-0.7-0.2-1c-0.4-2.6-1.6-5.8-3.1-9.1
		c-0.3-0.7-0.7-1.4-1.1-2.1c0,0,0,0,0,0c-0.4-0.7-0.7-1.4-1.1-2.1c-0.2-0.4-0.4-0.7-0.6-1.1l0-0.1c-0.1-0.2-0.2-0.3-0.3-0.5
		c0,0,0,0,0,0c-2-2.9-4.1-3.6-9-2.5h0c-0.1,0-0.2,0-0.3,0.1c-0.2,0.1-0.5,0.1-0.7,0.2c-0.9,0.2-1.3,0.2-2.9,0.2h0H46.7l-0.6-1.5
		c-0.3-0.8-1.1-1.3-1.9-1.3v0C43.9,985,43.6,985.1,43.3,985.2z M7.4,987.9c-1.5,1.5-2.4,3.6-2.4,5.8c0,2.3,0.9,4.3,2.4,5.8
		c1.5,1.5,3.6,2.4,5.8,2.4c7.2,0,11.9-9.5,22.1-2.5c-1.6-5.2-7.8-6.9-13.5-7.3c1.2-0.2,2.2-0.9,3-1.7c0.6-0.7,1.1-1.5,1.3-2.4
		c-2.1,1.6-5.1,1.5-7.1-0.2c-1.5-1.5-3.6-2.4-5.8-2.4C11,985.5,8.9,986.4,7.4,987.9z"/>
</g>
</svg>
