<?xml version="1.0" encoding="utf-8"?>
<!-- Generator: Adobe Illustrator 22.0.0, SVG Export Plug-In . SVG Version: 6.00 Build 0)  -->
<svg version="1.1" id="Layer_1" xmlns="http://www.w3.org/2000/svg" xmlns:xlink="http://www.w3.org/1999/xlink" x="0px" y="0px"
	 viewBox="0 0 100 100" style="enable-background:new 0 0 100 100;" xml:space="preserve">
<path d="M15.3,58.1c1.1,1,2.3,1.7,3.6,2.2c1.4,0.5,2.9,0.8,4.4,0.8c6.6,0,11.9-5.4,11.9-11.9c0-3.3-1.4-6.5-3.9-8.8
	c-0.9-0.8-1.8-1.5-2.9-2c-1.6-0.8-3.4-1.2-5.2-1.2c-6.6,0-11.9,5.4-11.9,11.9C11.3,52.6,12.8,55.8,15.3,58.1z"/>
<path d="M33.5,58.8h-0.6l0,0c-2,2-4.5,3.3-7.3,3.8l-0.4,0.1l2,1.1l-3.5,4l2.5,11.1l-2.8,5.8l-2.8-5.8l2.5-11.1l-3.5-4l2-1.1L21,62.6
	c-0.2,0-0.4-0.1-0.5-0.1c-0.3-0.1-0.5-0.1-0.7-0.2c-2.3-0.6-4.4-1.8-6-3.5l0,0H13c-5.4,0-9.7,4.4-9.7,9.7v17.8h39.8V68.5
	C43.2,63.1,38.8,58.8,33.5,58.8z"/>
<path d="M94.8,15.6C94.7,15.6,94.7,15.5,94.8,15.6c-1.3-1.3-2.9-1.9-4.6-1.9H32.5c-3.6,0-6.5,2.9-6.5,6.5v16h0.1
	c0.7,0.1,1.4,0.3,2,0.6c0.6,0.2,1.1,0.5,1.6,0.7l0.1,0.1V20.2c0-1.5,1.2-2.8,2.8-2.8h57.6c1.5,0,2.8,1.2,2.8,2.8v39.4
	c0,1.5-1.2,2.8-2.8,2.8H42.8l0.1,0.1c0.7,1.1,1.3,2.3,1.6,3.6v0.1h45.6c3.6,0,6.5-2.9,6.5-6.5V20.2C96.7,18.5,96,16.8,94.8,15.6z"/>
<path d="M50.9,30.7c0.2-0.2,0.2-0.6,0-0.9L49.8,28c-0.2-0.3-0.5-0.5-0.8-0.4l-1.9,0.7H47c-0.5-0.4-1-0.7-1.6-0.9v-0.1l-0.4-2
	c-0.1-0.3-0.4-0.5-0.7-0.5h-2c-0.3,0-0.7,0.2-0.7,0.5l-0.3,2v0.1c-0.3,0.1-0.6,0.3-0.8,0.4c-0.3,0.2-0.5,0.3-0.8,0.5h-0.1l-1.9-0.7
	c-0.3-0.1-0.6,0.1-0.8,0.4l-1,1.8c-0.2,0.3-0.1,0.7,0.1,0.9l1.6,1.3c0,0,0,0,0.1,0.1c-0.1,0.6-0.1,1.2,0,1.8c0,0-0.1,0-0.1,0.1
	L36,35.5c-0.2,0.2-0.2,0.6-0.1,0.9l1,1.8c0.2,0.3,0.5,0.5,0.8,0.4l1.9-0.7h0.1c0.5,0.4,1,0.7,1.6,0.9v0.1l0.4,2
	c0.1,0.3,0.4,0.5,0.7,0.5h2.1c0.4,0,0.7-0.2,0.7-0.5l0.3-2v-0.1c0.3-0.1,0.5-0.2,0.8-0.4s0.5-0.3,0.7-0.5h0.1l1.9,0.7
	c0.3,0.1,0.6-0.1,0.8-0.4l1-1.8c0.2-0.3,0.1-0.7-0.1-0.9L49.4,34c0,0-0.1,0-0.1-0.1c0.1-0.6,0.1-1.2,0-1.8c0,0,0.1,0,0.1-0.1
	L50.9,30.7z M45,35.6c-1.4,0.8-3.3,0.4-4.1-1.1c-0.8-1.4-0.4-3.3,1-4.1c1.4-0.8,3.3-0.4,4.1,1.1C46.9,32.9,46.5,34.7,45,35.6z"/>
<path d="M43.5,31.4c-0.3,0-0.6,0.1-0.9,0.2c-0.4,0.2-0.7,0.6-0.8,1.1c-0.1,0.4,0,0.9,0.2,1.3c0.3,0.5,0.9,0.8,1.5,0.8l0,0
	c0.3,0,0.6-0.1,0.9-0.2c0.8-0.5,1.1-1.5,0.6-2.4C44.6,31.7,44.1,31.4,43.5,31.4z"/>
<path d="M56.4,40.9c0.1-0.1,0.1-0.3,0-0.5l-0.6-1c-0.1-0.2-0.3-0.3-0.5-0.2l-1.1,0.4c0,0,0,0-0.1,0c-0.3-0.2-0.6-0.4-0.9-0.5
	c0,0,0,0,0-0.1L53,37.8c0-0.2-0.2-0.3-0.4-0.3h-1.2c-0.2,0-0.4,0.1-0.4,0.3L50.8,39l0,0c-0.2,0.1-0.3,0.1-0.5,0.2
	c-0.2,0.1-0.3,0.2-0.4,0.3l0,0l-1.1-0.4c-0.2-0.1-0.4,0-0.4,0.2l-0.6,1c-0.1,0.2-0.1,0.4,0,0.5l0.9,0.8l0,0c0,0.3,0,0.7,0,1.1l0,0
	l-0.9,0.8c-0.1,0.1-0.1,0.3,0,0.5l0.6,1c0.1,0.2,0.3,0.3,0.5,0.2L50,45c0,0,0,0,0.1,0c0.3,0.2,0.6,0.4,0.9,0.5c0,0,0,0,0,0.1
	l0.2,1.2c0,0.2,0.2,0.3,0.4,0.3h1.2c0.2,0,0.4-0.1,0.4-0.3l0.2-1.2c0,0,0,0,0-0.1c0.2-0.1,0.3-0.1,0.5-0.2c0.2-0.1,0.3-0.2,0.4-0.3
	c0,0,0,0,0.1,0l1.1,0.4c0.2,0.1,0.3,0,0.4-0.2l0.6-1c0.1-0.2,0.1-0.4,0-0.5l-0.9-0.8c0,0,0,0-0.1,0c0.1-0.3,0-0.7,0-1l0,0L56.4,40.9
	z M53,43.7c-0.8,0.5-1.9,0.2-2.4-0.6s-0.2-1.9,0.6-2.4s1.9-0.2,2.4,0.6S53.8,43.2,53,43.7z"/>
<path d="M52.1,41.3c-0.2,0-0.4,0-0.5,0.1c-0.2,0.1-0.4,0.4-0.5,0.6c-0.1,0.3,0,0.5,0.1,0.8c0.2,0.3,0.5,0.5,0.9,0.5l0,0
	c0.2,0,0.4,0,0.5-0.1c0.5-0.3,0.6-0.9,0.4-1.4C52.8,41.4,52.5,41.3,52.1,41.3z"/>
<path d="M40.4,51.4c-0.2,0.1-0.2,0.4,0,0.6l0.7,1.2c0.1,0.2,0.4,0.3,0.6,0.3l1.4-0.5c0,0,0,0,0.1,0c0.3,0.3,0.7,0.5,1.1,0.6
	c0,0,0,0,0,0.1l0.3,1.4c0,0.2,0.3,0.3,0.5,0.3h1.5c0.3,0,0.5-0.2,0.5-0.4l0.2-1.4v-0.1c0.2-0.1,0.4-0.2,0.6-0.3
	c0.2-0.1,0.4-0.2,0.5-0.4c0,0,0,0,0.1,0l1.4,0.5c0.2,0.1,0.4-0.1,0.5-0.3l0.7-1.3c0.1-0.2,0.1-0.5,0-0.6L50,50.2c0,0,0,0-0.1,0
	c0.1-0.4,0.1-0.9,0-1.3c0,0,0,0,0.1,0l1.1-1c0.1-0.1,0.2-0.4,0-0.6L50.4,46c-0.1-0.2-0.4-0.3-0.6-0.3l-1.4,0.5c0,0,0,0-0.1,0
	c-0.3-0.3-0.7-0.5-1.1-0.6c0,0,0,0,0-0.1l-0.3-1.4c0-0.2-0.3-0.3-0.5-0.3H45c-0.2,0-0.5,0.2-0.5,0.3l-0.2,1.4c0,0,0,0,0,0.1
	c-0.2,0.1-0.4,0.2-0.6,0.3c-0.2,0.1-0.4,0.2-0.5,0.4c0,0,0,0-0.1,0L41.5,46c-0.2-0.1-0.4,0.1-0.5,0.3l-0.7,1.3
	c-0.1,0.2-0.1,0.5,0.1,0.6l1.1,0.9l0,0c-0.1,0.4-0.1,0.9,0,1.3c0,0,0,0-0.1,0L40.4,51.4z M44.6,47.8c1-0.6,2.3-0.3,2.9,0.8
	c0.6,1,0.3,2.3-0.7,2.9c-1,0.6-2.3,0.3-2.9-0.7C43.2,49.7,43.6,48.4,44.6,47.8z"/>
<path d="M45.6,51L45.6,51c0.2,0,0.4-0.1,0.6-0.2c0.3-0.2,0.5-0.4,0.6-0.8c0.1-0.3,0-0.7-0.1-0.9c-0.2-0.4-0.6-0.6-1.1-0.6
	c-0.2,0-0.4,0.1-0.6,0.2c-0.3,0.2-0.5,0.4-0.6,0.8c-0.1,0.3,0,0.7,0.1,0.9C44.8,50.8,45.2,51,45.6,51z"/>
<path d="M75.4,27.8c0.4,0,0.7-0.3,0.7-0.7v-2.4c0-0.4-0.3-0.7-0.7-0.7H65.3h-0.1c-0.3,0.1-0.5,0.3-0.5,0.7V38h-5
	c-0.4,0-0.7,0.3-0.7,0.7v2.4c0,0.4,0.3,0.7,0.7,0.7h5v13.3c0,0.4,0.3,0.7,0.7,0.7h10.1c0.4,0,0.7-0.3,0.7-0.7v-2.4
	c0-0.4-0.3-0.7-0.7-0.7h-7V41.8h7c0.4,0,0.7-0.3,0.7-0.7v-2.4c0-0.4-0.3-0.7-0.7-0.7h-7V27.8H75.4z"/>
<path d="M81,30.4h6c0.8,0,1.5-0.7,1.5-1.5v-6c0-0.8-0.7-1.5-1.5-1.5h-6c-0.8,0-1.5,0.7-1.5,1.5v6C79.5,29.7,80.2,30.4,81,30.4z"/>
<path d="M79.5,42.9c0,0.8,0.7,1.5,1.5,1.5h6c0.8,0,1.5-0.7,1.5-1.5v-6c0-0.8-0.7-1.5-1.5-1.5h-6c-0.8,0-1.5,0.7-1.5,1.5V42.9z"/>
<path d="M79.5,56.9c0,0.8,0.7,1.5,1.5,1.5h6c0.8,0,1.5-0.7,1.5-1.5v-6c0-0.8-0.7-1.5-1.5-1.5h-6c-0.8,0-1.5,0.7-1.5,1.5V56.9z"/>
</svg>
